<svg id="Capa_1" enable-background="new 0 0 512 512" height="512" viewBox="0 0 512 512" width="512" xmlns="http://www.w3.org/2000/svg"><g><g><path d="m436 508.944c-8.291 0-15-6.709-15-15v-181c0-8.291 6.709-15 15-15s15 6.709 15 15v181c0 8.291-6.709 15-15 15z" fill="#39326c"/></g><path d="m256 87.944c-24.814 0-45 20.186-45 45v29.956l45 .022 45 .022v-30c0-24.814-20.186-45-45-45z" fill="#ff6b6b"/><path d="m301 132.944c0-24.814-20.186-45-45-45v74.978l45 .022z" fill="#e62e77"/><path d="m497 147.944h-117.499l-12.217 29.639 75.357 125.599 45.857 24.763h8.502c8.291 0 15-6.709 15-15v-150c0-8.292-6.709-15.001-15-15.001z" fill="#e2dff4"/><path d="m379.501 147.944h-89.993l-11.841 30.264 73.099 121.832 46.742 27.904h90.99z" fill="#e62e77"/><path d="m289.508 147.944h-33.508-56.494l-8.518 35.803 65.012 108.352 4.64 7.733 46.868 28.112h90z" fill="#f3f5f9"/><path d="m307.508 327.944h90l-108-180h-33.508v144.155l4.64 7.733z" fill="#e2dff4"/><path d="m256 242.099-56.494-94.155h-90l-5.76 40.399 65.077 108.458 48.686 31.143h38.491 51.508z" fill="#ff6b6b"/><path d="m256 242.099v85.845h51.508z" fill="#e62e77"/><path d="m109.506 147.944h-90.992l-2.565 45.727 66.576 109.295 44.986 24.978h89.998z" fill="#f3f5f9"/><path d="m15 147.944c-8.291 0-15 6.709-15 15v150c0 8.291 6.709 15 15 15h112.511l-108.997-180z" fill="#ff6b6b"/><g><g><path d="m279.291 61.005c-7.998-2.139-12.744-10.371-10.605-18.369l7.764-28.456c2.139-8.013 10.444-12.744 18.369-10.605 7.998 2.139 12.744 10.371 10.605 18.369l-7.764 28.456c-2.146 8.059-10.44 12.744-18.369 10.605z" fill="#ffc178"/></g></g><g><g><path d="m214.34 50.4-7.764-28.456c-2.139-7.998 2.607-16.23 10.605-18.369 8.027-2.153 16.245 2.593 18.369 10.605l7.764 28.456c2.139 7.998-2.607 16.23-10.605 18.369-7.923 2.137-16.221-2.54-18.369-10.605z" fill="#fcdf77"/></g></g><g><g><path d="m171.142 84.296-21.211-21.211c-5.859-5.859-5.859-15.352 0-21.211s15.352-5.859 21.211 0l21.211 21.211c5.859 5.859 5.859 15.352 0 21.211-5.86 5.86-15.352 5.86-21.211 0z" fill="#fcdf77"/></g></g><g><g><path d="m319.647 84.296c-5.859-5.859-5.859-15.352 0-21.211l21.211-21.211c5.859-5.859 15.352-5.859 21.211 0s5.859 15.352 0 21.211l-21.211 21.211c-5.859 5.86-15.351 5.86-21.211 0z" fill="#ffc178"/></g></g><g><path d="m466 508.944h-60c-8.291 0-15-6.709-15-15s6.709-15 15-15h60c8.291 0 15 6.709 15 15s-6.709 15-15 15z" fill="#39326c"/></g><path d="m166.806 357.944-15.806-15h-30-30l-15.806 15-20 60 35.806 15h30 30l35.806-15z" fill="#ffc178"/><path d="m186.806 417.944-20-60-15.806-15h-30v90h30z" fill="#ff9f40"/><g fill="#fcdf77"><path d="m186.806 417.944h-65.806-65.806l-23.418 71.254h89.224 89.224z"/><path d="m166.806 357.944-16.582-49.746c-2.036-6.123-7.764-10.254-14.224-10.254h-15-15c-6.46 0-12.188 4.131-14.224 10.254l-16.582 49.746h45.806z"/></g><path d="m186.806 417.944h-65.806v71.254h89.224z" fill="#ffc178"/><path d="m150.224 308.198c-2.036-6.123-7.764-10.254-14.224-10.254h-15v60h45.806z" fill="#ffc178"/><path d="m226 478.944h-105-106c-8.401 0-15 6.599-15 15 0 8.399 6.599 15 15 15h106 105c8.401 0 15-6.601 15-15 0-8.401-6.599-15-15-15z" fill="#51489a"/><path d="m241 493.944c0 8.399-6.599 15-15 15h-105v-30h105c8.401 0 15 6.599 15 15z" fill="#39326c"/></g></svg>