<svg height="512" viewBox="0 0 64 64" width="512" xmlns="http://www.w3.org/2000/svg"><g id="Fill_Outline" data-name="Fill Outline"><g id="color"><g><g><path d="m35.804 3-12 20.785 9.526 5.5-.732-2.732 2.732-.732-1.598-3.233 2.732-.732-1.598-3.232 2.732-.732-1.598-3.232 2.732-.732-.732-2.732 2.732-.732.268-4.464z" fill="#d0d8da"/><path d="m34.866 18.624.307-.082a4.99 4.99 0 0 1 -.869-6.088l4.469-7.74-2.973-1.714-12 20.785 9.526 5.5-.726-2.732 2.732-.733-1.6-3.232 2.732-.732z" fill="#93999a"/></g><g><rect fill="#fcbc04" height="12" rx="2" transform="matrix(-.5 -.866 .866 -.5 -19.47 83.83)" width="12" x="8.464" y="41.536"/><path d="m13.069 41.413a6 6 0 0 1 -2.605 7.319l-1.678.968 2.482 4.3a2 2 0 0 0 2.732.732l6.929-4a2 2 0 0 0 .732-2.732l-4-6.929a2 2 0 0 0 -2.732-.732z" fill="#e59730"/><circle cx="14.464" cy="47.536" fill="#f89c8d" r="2"/><path d="m14.037 48.009a1.989 1.989 0 0 1 -1.446.212 2.052 2.052 0 0 0 .141.315 2 2 0 1 0 2.178-2.944 2 2 0 0 1 -.873 2.417z" fill="#f8664f"/></g><g><path d="m3.66 31.464h20v8h-20z" fill="#84d2f4" transform="matrix(.866 .5 -.5 .866 19.562 -2.079)"/><path d="m13.648 30.838a4.987 4.987 0 0 1 -6.658 1.59l-2.343-1.353-1.647 2.853 17.32 10 4-6.928z" fill="#57b7eb"/></g><g><path d="m10.581 6.042h11v10h-11z" fill="#d0d8da" transform="matrix(.707 -.707 .707 .707 -3.098 14.606)"/><path d="m5.95 14.174h4v10h-4z" fill="#d0d8da" transform="matrix(.707 -.707 .707 .707 -11.23 11.237)"/><path d="m8.778 13.346h4v6h-4z" fill="#656b76" transform="matrix(.707 -.707 .707 .707 -8.401 12.409)"/><path d="m27.042 4.325-.065.018a6.934 6.934 0 0 0 -4.867 4.867l-.018.065-4.243-4.243a6.937 6.937 0 0 1 8.008-1.3z" fill="#d0d8da"/><path d="m24.042 11.295h6v20h-6z" fill="#57b7eb" transform="matrix(.707 -.707 .707 .707 -7.138 25.359)"/><g fill="#93999a"><path d="m18.556 11.639a4 4 0 0 1 -5.657 0l-2.242-2.239-2 2 7.071 7.071 7.778-7.778-2-2z"/><path d="m7.95 20-3.95-3.947-1 1 7.071 7.071 2.829-2.824-1.03-1.034a2.991 2.991 0 0 1 -3.92-.266z"/><path d="m24.877 3.336a6.949 6.949 0 0 0 -1.832 1.854 1.778 1.778 0 0 1 -2.751.287l-1.329-1.329a6.892 6.892 0 0 0 -1.116.884l4.243 4.243.017-.065a6.937 6.937 0 0 1 4.868-4.867l.065-.018-1.185-.592a6.959 6.959 0 0 0 -.98-.397z"/></g><path d="m25.234 15.245-1.268 1.268a1.379 1.379 0 0 1 -1.949 0 1.38 1.38 0 0 1 0-1.95l1.267-1.263-1.192-1.2-4.243 4.243 14.142 14.145 4.243-4.243z" fill="#4891d3"/></g><g><path d="m34.652 29-1.447-1.447 15.556-15.557 4.243 4.243-11.181 11.18z" fill="#93999a"/><path d="m47.675 13.082-4.914 4.918a7.845 7.845 0 0 0 .586.657 7.962 7.962 0 0 0 4.934 2.309l4.719-4.727-1.5-1.5-1.086 1.086z" fill="#656b76"/><path d="m60.367 8.876-5.949 5.949-4.243-4.243 5.949-5.949a8 8 0 1 0 4.243 4.243z" fill="#d0d8da"/><path d="m59.66 13.653a7.994 7.994 0 0 1 -13.65-5.53 7.993 7.993 0 1 0 14.97 3.763 7.922 7.922 0 0 1 -1.32 1.767z" fill="#93999a"/></g><path d="m59 44v-10h-4.719a17.9 17.9 0 0 0 -1.52-3.69l3.331-3.331-7.071-7.071-3.331 3.331a17.918 17.918 0 0 0 -3.69-1.52v-4.719h-10v4.719a17.918 17.918 0 0 0 -3.69 1.52l-3.331-3.331-7.071 7.071 3.331 3.331a17.9 17.9 0 0 0 -1.52 3.69h-4.719v10h4.719a17.918 17.918 0 0 0 1.52 3.69l-3.331 3.331 7.071 7.071 3.331-3.331a17.918 17.918 0 0 0 3.69 1.52v4.719h10v-4.719a17.918 17.918 0 0 0 3.69-1.52l3.331 3.331 7.071-7.071-3.331-3.331a17.918 17.918 0 0 0 1.52-3.69zm-22 4a9 9 0 1 1 9-9 9 9 0 0 1 -9 9z" fill="#f9e109"/><path d="m49 54a26 26 0 0 1 -25.01-33.1l-6.082 6.082 3.331 3.331a17.9 17.9 0 0 0 -1.52 3.687h-4.719v10h4.719a17.918 17.918 0 0 0 1.52 3.69l-3.331 3.331 7.071 7.071 3.331-3.331a17.918 17.918 0 0 0 3.69 1.52v4.719h10v-4.719a17.918 17.918 0 0 0 3.69-1.52l3.331 3.331 4.49-4.49a26.1 26.1 0 0 1 -4.511.398z" fill="#fcbc04"/></g></g><g id="Outline_copy" data-name="Outline copy"><g fill="#323232"><path d="m59 33h-3.981a19.028 19.028 0 0 0 -1.031-2.5l2.811-2.81a1 1 0 0 0 0-1.415l-5.433-5.435a9.1 9.1 0 0 0 1.634.152 8.992 8.992 0 0 0 8.287-12.506 1 1 0 0 0 -1.628-.317l-3.487 3.488a1 1 0 1 0 1.414 1.414l2.308-2.307a7 7 0 1 1 -5.658-5.658l-4.768 4.769a1 1 0 0 0 0 1.414l4.243 4.243a1 1 0 0 0 1.414-1.414l-3.536-3.536 5.242-5.241a1 1 0 0 0 -.317-1.628 8.988 8.988 0 0 0 -12.031 11.148l-1.637 1.639a.987.987 0 0 0 -.846-.5h-4.222l-.341-.689 1.554-.417a1 1 0 0 0 .707-1.225l-.473-1.769 1.766-.473a1 1 0 0 0 .739-.907l.27-4.46a1 1 0 0 0 -.5-.926l-5.2-3a1 1 0 0 0 -1.367.366l-7.7 13.336-3.728-3.736.708-.707a1 1 0 0 0 0-1.415l-.977-.976a5.99 5.99 0 0 1 4.064-3.711 1 1 0 0 0 .187-1.86l-1.187-.593a7.911 7.911 0 0 0 -8.4.836l-.763-.763a1 1 0 0 0 -1.414 0l-2.5 2.494a1 1 0 0 0 1.414 1.414l1.789-1.787 5.656 5.656-6.364 6.365-5.647-5.653 1.748-1.749a1 1 0 0 0 -1.414-1.414l-2.455 2.452a1 1 0 0 0 0 1.415l.707.706-1.415 1.415-.707-.707a1 1 0 0 0 -1.414 0l-2.828 2.828a1 1 0 0 0 0 1.414l7.071 7.071a1 1 0 0 0 1.414 0l2.828-2.831a1 1 0 0 0 0-1.414l-.707-.708 1.414-1.414.708.707a1 1 0 0 0 1.414 0l1.414-1.415 3.933 3.933-4.582 4.583a1 1 0 0 0 0 1.415l2.811 2.81a18.881 18.881 0 0 0 -.958 2.308l-11.553-6.671a1 1 0 0 0 -1.366.366l-4 6.928a1 1 0 0 0 .366 1.366l9.945 5.742-5.151 2.974a3 3 0 0 0 -1.1 4.1l4 6.929a3 3 0 0 0 .657.775l-5.351 3.086a1 1 0 0 0 -.366 1.367l1 1.732a1 1 0 1 0 1.732-1l-.5-.866 7.634-4.408 3.612-2.085 5.66 5.66a1 1 0 0 0 1.415 0l2.81-2.811a19.028 19.028 0 0 0 2.503 1.03v3.981a1 1 0 0 0 1 1h10a1 1 0 0 0 1-1v-3.981a19.028 19.028 0 0 0 2.5-1.031l2.81 2.811a1 1 0 0 0 1.415 0l7.075-7.071a1 1 0 0 0 0-1.415l-2.812-2.813a19.028 19.028 0 0 0 1.031-2.5h3.981a1 1 0 0 0 0-2h-4.719a1 1 0 0 0 -.961.723 16.93 16.93 0 0 1 -1.434 3.483 1 1 0 0 0 .168 1.19l2.624 2.625-5.657 5.657-2.621-2.624a1 1 0 0 0 -1.19-.168 16.93 16.93 0 0 1 -3.483 1.434 1 1 0 0 0 -.723.961v3.719h-8.004v-3.719a1 1 0 0 0 -.723-.961 16.93 16.93 0 0 1 -3.483-1.434 1 1 0 0 0 -1.19.168l-2.625 2.624-5.657-5.657 2.624-2.621a1 1 0 0 0 .168-1.19 16.93 16.93 0 0 1 -1.434-3.483 1 1 0 0 0 -.961-.727h-3.719v-8h3.719a1 1 0 0 0 .961-.723 16.93 16.93 0 0 1 1.434-3.483 1 1 0 0 0 -.168-1.19l-2.624-2.625 5.657-5.657 2.621 2.624a1 1 0 0 0 1.19.168 16.93 16.93 0 0 1 3.483-1.434 1 1 0 0 0 .727-.961v-3.719h8v3.719a1 1 0 0 0 .723.961 16.93 16.93 0 0 1 3.483 1.434 1 1 0 0 0 1.19-.168l2.625-2.624 5.657 5.657-2.624 2.621a1 1 0 0 0 -.168 1.19 16.93 16.93 0 0 1 1.434 3.483 1 1 0 0 0 .961.723h3.719v5a1 1 0 0 0 2 0v-5.996a1 1 0 0 0 -1-1zm-48.929-10.29-5.657-5.657 1.414-1.414 5.657 5.661zm1.414-4.243-2.829-2.828 1.415-1.415 2.829 2.829zm-4.119 9.9 1.732 1-1.5 2.6a1 1 0 1 0 1.732 1l1.5-2.6 1.732 1-1.5 2.6a1 1 0 1 0 1.732 1l1.5-2.6 1.1.634h-.394a1 1 0 0 0 -1 1v5.124l-9.634-5.563zm7.151 18.239a1 1 0 0 1 .242 1.833 1.017 1.017 0 0 1 -.76.1 1 1 0 0 1 .258-1.967 1.049 1.049 0 0 1 .26.033zm4.464-1.606a19.028 19.028 0 0 0 1.031 2.5l-2.812 2.813a.994.994 0 0 0 -.039 1.356l-3.868 2.231a1 1 0 0 1 -.758.1.987.987 0 0 1 -.606-.466l-4-6.93a1 1 0 0 1 .365-1.364l5.706-3.292v2.052a.976.976 0 0 0 .21.584 2.994 2.994 0 0 0 -.729 5.886 3.038 3.038 0 0 0 .782.1 2.989 2.989 0 0 0 1.516-5.57zm5.632-40.7a8.015 8.015 0 0 0 -2.9 3.188l-2.383-2.388a5.933 5.933 0 0 1 5.283-.8zm3.887 17.712-2.813-2.812a1 1 0 0 0 -1.415 0l-1.072 1.078-3.933-3.933 2.828-2.828 7.856 7.855c-.498.196-.984.406-1.451.64zm3.5-6.012a1 1 0 0 0 -1 1v2.6l-2.3-2.3 7.47-12.934 3.8 2.191-.188 3.128-2.036.545a1 1 0 0 0 -.707 1.225l.474 1.766-1.767.473a1 1 0 0 0 -.646 1.406l.443.9zm13.5 6.012a19.028 19.028 0 0 0 -2.5-1.031v-1.809l2.389-2.39a8.875 8.875 0 0 0 2.634 2.71z"/><path d="m37 31a7.983 7.983 0 0 1 4.252 1.232 1 1 0 1 0 1.066-1.691 10.022 10.022 0 1 0 3.141 3.141 1 1 0 1 0 -1.691 1.066 7.995 7.995 0 1 1 -6.768-3.748z"/></g></g></g></svg>