<svg height="480pt" viewBox="0 -4 480 480" width="480pt" xmlns="http://www.w3.org/2000/svg"><path d="m424 464c-13.253906 0-24-10.746094-24-24s10.746094-24 24-24 24 10.746094 24 24-10.746094 24-24 24zm0-32c-4.417969 0-8 3.582031-8 8s3.582031 8 8 8 8-3.582031 8-8-3.582031-8-8-8zm0 0" fill="#6cbdbd"/><path d="m456 464c-13.253906 0-24-10.746094-24-24s10.746094-24 24-24 24 10.746094 24 24-10.746094 24-24 24zm0-32c-4.417969 0-8 3.582031-8 8s3.582031 8 8 8 8-3.582031 8-8-3.582031-8-8-8zm0 0" fill="#6cbdbd"/><path d="m440 432c-13.253906 0-24-10.746094-24-24s10.746094-24 24-24 24 10.746094 24 24-10.746094 24-24 24zm0-32c-4.417969 0-8 3.582031-8 8s3.582031 8 8 8 8-3.582031 8-8-3.582031-8-8-8zm0 0" fill="#6cbdbd"/><path d="m8 464 40-40 40 40" fill="#b3b3b3"/><path d="m104 96h16v112h-16zm0 0" fill="#008fcf"/><path d="m296 136h16v136h-16zm0 0" fill="#008fcf"/><path d="m112 128h112v16h-112zm0 0" fill="#008fcf"/><path d="m112 168h184v16h-184zm0 0" fill="#008fcf"/><path d="m232 152h16v120h-16zm0 0" fill="#008fcf"/><path d="m168 160h16v48h-16zm0 0" fill="#008fcf"/><path d="m243.289062 264-32-31.664062h-27.289062v-35h-80v274.664062h208v-208zm0 0" fill="#e6e6e6"/><g fill="#00c9dd"><path d="m136 264h16v16h-16zm0 0"/><path d="m168 264h16v16h-16zm0 0"/><path d="m200 264h16v16h-16zm0 0"/><path d="m136 296h16v16h-16zm0 0"/><path d="m168 296h16v16h-16zm0 0"/><path d="m200 296h16v16h-16zm0 0"/><path d="m232 296h16v16h-16zm0 0"/><path d="m264 296h16v16h-16zm0 0"/><path d="m136 328h16v16h-16zm0 0"/><path d="m168 328h16v16h-16zm0 0"/><path d="m200 328h16v16h-16zm0 0"/><path d="m232 328h16v16h-16zm0 0"/><path d="m264 328h16v16h-16zm0 0"/><path d="m136 360h16v16h-16zm0 0"/><path d="m168 360h16v16h-16zm0 0"/><path d="m200 360h16v16h-16zm0 0"/><path d="m232 360h16v16h-16zm0 0"/><path d="m264 360h16v16h-16zm0 0"/><path d="m136 392h16v16h-16zm0 0"/><path d="m168 392h16v16h-16zm0 0"/><path d="m200 392h16v16h-16zm0 0"/><path d="m232 392h16v16h-16zm0 0"/><path d="m264 392h16v16h-16zm0 0"/><path d="m136 424h16v16h-16zm0 0"/><path d="m168 424h16v16h-16zm0 0"/><path d="m200 424h16v16h-16zm0 0"/><path d="m232 424h16v16h-16zm0 0"/><path d="m264 424h16v16h-16zm0 0"/></g><path d="m8 280h64v32l-16 16h-32l-16-16zm0 0" fill="#ffcd34"/><path d="m8 280 24-32h16l24 32" fill="#b3b3b3"/><path d="m384 64h-32c-4.417969 0-8 3.582031-8 8v392c0 4.417969 3.582031 8 8 8h32c4.417969 0 8-3.582031 8-8v-392c0-4.417969-3.582031-8-8-8zm-22.398438 344 14.398438-21.601562v43.203124zm12.796876-240-14.398438 21.601562v-43.203124zm-12.796876-48 14.398438-21.601562v43.203124zm-1.601562 122.398438 14.398438 21.601562-14.398438 21.601562zm0 96 14.398438 21.601562-14.398438 21.601562zm1.601562-26.398438 14.398438-21.601562v43.203124zm0-96 14.398438-21.601562v43.203124zm7.4375-136-9.039062 13.601562v-13.601562zm-9.039062 354.398438 14.398438 21.601562h-14.398438zm0 0" fill="#ffcd34"/><path d="m328 16h-320c-4.417969 0-8 3.582031-8 8v32c0 4.417969 3.582031 8 8 8h320c4.417969 0 8-3.582031 8-8v-32c0-4.417969-3.582031-8-8-8zm-208 17.601562 21.601562 14.398438h-43.203124zm-48 12.796876-21.601562-14.398438h43.203124zm74.398438-14.398438h43.203124l-21.601562 14.398438zm69.601562 1.601562 21.601562 14.398438h-43.203124zm26.398438-1.601562h43.203124l-21.601562 14.398438zm-226.398438 0h5.601562l24 16h-29.601562zm304 16h-29.601562l24-16h5.601562zm0 0" fill="#ffcd34"/><path d="m472 16h-64c-4.417969 0-8 3.582031-8 8v32c0 4.417969 3.582031 8 8 8h64c4.417969 0 8-3.582031 8-8v-32c0-4.417969-3.582031-8-8-8zm-34.398438 16-21.601562 14.398438v-14.398438zm4.796876 16 21.601562-14.398438v14.398438zm0 0" fill="#ffcd34"/><path d="m40 256c-13.253906 0-24-10.746094-24-24h16c0 4.417969 3.582031 8 8 8s8-3.582031 8-8-3.582031-8-8-8-8-3.582031-8-8v-160h16v153.367188c11.027344 3.890624 17.644531 15.164062 15.667969 26.691406-1.976563 11.523437-11.972657 19.949218-23.667969 19.941406zm0 0" fill="#008fcf"/><path d="m328 0h80v72h-80zm0 0" fill="#226c8a"/><path d="m328 0h48v48h-48zm0 0" fill="#00c9dd"/><path d="m0 456h480v16h-480zm0 0" fill="#603813"/><path d="m328 48c24.222656-4.84375 43.15625-23.777344 48-48v48zm0 0" fill="#81d0d3"/></svg>